<?xml version="1.0" encoding="utf-8"?>
<!DOCTYPE svg PUBLIC "-//W3C//DTD SVG 20010904//EN" "http://www.w3.org/TR/2001/REC-SVG-20010904/DTD/svg10.dtd">
<svg version="1.0" xmlns="http://www.w3.org/2000/svg" width="512px" height="512px" viewBox="0 0 512 512" preserveAspectRatio="xMidYMid meet">
 <g fill="#000000">
  <path d="M151 461 c-21 -0.8 -33.5 -2.7 -43.8 -6.6 -24 -9 -45.9 -33.2 -52.1 -57.5 -4.3 -16.9 -4.6 -25.6 -4.6 -141.4 0 -115.5 0.3 -123.5 4.5 -140.1 7.1 -27.6 32.7 -53.3 60.1 -60.3 16.9 -4.3 25.6 -4.6 141.4 -4.6 115.5 0 123.5 0.3 140.1 4.5 27.6 7.1 53.3 32.7 60.3 60.1 4.3 16.9 4.6 25.6 4.6 141.4 0 115.5 -0.3 123.5 -4.5 140.1 -7.1 27.9 -32.9 53.5 -60.6 60.4 -4.4 1 -12.2 2.4 -17.4 3.1 -11.3 1.3 -197.6 2.1 -228 0.9z m82.8 -111.2 c0.9 -0.9 1.2 -9.9 1.2 -34.5 l0 -33.3 42.8 0 c32 0 43.1 -0.3 44 -1.2 0.9 -0.9 1.2 -15.6 1.2 -60 0 -57 -0.1 -58.8 -1.9 -59.8 -1.3 -0.6 -23.8 -1 -66 -1 -64 0 -64 0 -65.5 2.2 -1.4 2 -1.6 12.5 -1.6 93.6 0 61 0.3 92 1 93.3 1 1.8 2.3 1.9 22.3 1.9 15.2 0 21.6 -0.3 22.5 -1.2z"/>
  <path d="M235 221 l0 -15 21 0 21 0 0 15 0 15 -21 0 -21 0 0 -15z"/>
 </g>
 <g fill="#ffffff">
  <path d="M186 352.1 c-0.7 -1.3 -1 -33.2 -1 -96.3 0 -83.8 0.2 -94.6 1.6 -96.6 1.5 -2.2 1.5 -2.2 68.5 -2.2 44.3 0 67.7 0.4 69 1 1.8 1 1.9 2.8 1.9 62.8 0 46.7 -0.3 62.1 -1.2 63 -0.9 0.9 -12 1.2 -44 1.2 l-42.8 0 0 33.3 c0 24.6 -0.3 33.6 -1.2 34.5 -0.9 0.9 -7.9 1.2 -25.5 1.2 -22.9 0 -24.3 -0.1 -25.3 -1.9z m88 -131.1 l0 -12 -18 0 -18 0 0 12 0 12 18 0 18 0 0 -12z"/>
 </g>
</svg>